<mxfile host="app.diagrams.net" agent="Mozilla/5.0 (Windows NT 10.0; Win64; x64) AppleWebKit/537.36 (KHTML, like Gecko) Chrome/131.0.0.0 Safari/537.36" version="25.0.3">
  <diagram id="C5RBs43oDa-KdzZeNtuy" name="Page-1">
    <mxGraphModel dx="1810" dy="390" grid="1" gridSize="10" guides="1" tooltips="1" connect="1" arrows="1" fold="1" page="1" pageScale="1" pageWidth="827" pageHeight="1169" math="0" shadow="0">
      <root>
        <mxCell id="WIyWlLk6GJQsqaUBKTNV-0" />
        <mxCell id="WIyWlLk6GJQsqaUBKTNV-1" parent="WIyWlLk6GJQsqaUBKTNV-0" />
        <mxCell id="wvXP1zJoyvh084g_56NX-0" value="&lt;h1 style=&quot;margin-top: 0px;&quot;&gt;Problem # 4&lt;/h1&gt;&lt;p&gt;STEP 1 : ASK THE USER TO ENTER AGE&amp;nbsp;&lt;/p&gt;&lt;p&gt;STEP 2 : ASK THE USER HAS A DRIVER LICENSE&lt;/p&gt;&lt;p&gt;STEP 3 : RESULT = ( AGE &amp;gt;21 AND DRIVER LICENSE = TRUE )&lt;/p&gt;&lt;p&gt;STEP 4 : CHECK IF RESULT = TRUE -- HIRED ELSE RESULT = FALSE -- REJECTED&lt;/p&gt;&lt;p&gt;STEP 5 : PRINTED &quot;HIRED &quot; OR &quot;REJECTED&quot;&amp;nbsp;&lt;/p&gt;" style="text;html=1;whiteSpace=wrap;overflow=hidden;rounded=0;" vertex="1" parent="WIyWlLk6GJQsqaUBKTNV-1">
          <mxGeometry x="40" y="30" width="780" height="190" as="geometry" />
        </mxCell>
        <mxCell id="wvXP1zJoyvh084g_56NX-1" style="edgeStyle=orthogonalEdgeStyle;rounded=0;orthogonalLoop=1;jettySize=auto;html=1;exitX=0.5;exitY=1;exitDx=0;exitDy=0;exitPerimeter=0;entryX=0.5;entryY=0;entryDx=0;entryDy=0;" edge="1" parent="WIyWlLk6GJQsqaUBKTNV-1" source="wvXP1zJoyvh084g_56NX-2" target="wvXP1zJoyvh084g_56NX-4">
          <mxGeometry relative="1" as="geometry" />
        </mxCell>
        <mxCell id="wvXP1zJoyvh084g_56NX-2" value="START" style="strokeWidth=2;html=1;shape=mxgraph.flowchart.start_1;whiteSpace=wrap;" vertex="1" parent="WIyWlLk6GJQsqaUBKTNV-1">
          <mxGeometry x="360" y="220" width="100" height="60" as="geometry" />
        </mxCell>
        <mxCell id="wvXP1zJoyvh084g_56NX-3" style="edgeStyle=orthogonalEdgeStyle;rounded=0;orthogonalLoop=1;jettySize=auto;html=1;exitX=0.5;exitY=1;exitDx=0;exitDy=0;entryX=0.5;entryY=0;entryDx=0;entryDy=0;" edge="1" parent="WIyWlLk6GJQsqaUBKTNV-1" source="wvXP1zJoyvh084g_56NX-4" target="wvXP1zJoyvh084g_56NX-6">
          <mxGeometry relative="1" as="geometry" />
        </mxCell>
        <mxCell id="wvXP1zJoyvh084g_56NX-4" value="READ AGE&amp;nbsp;" style="shape=parallelogram;html=1;strokeWidth=2;perimeter=parallelogramPerimeter;whiteSpace=wrap;rounded=1;arcSize=12;size=0.23;" vertex="1" parent="WIyWlLk6GJQsqaUBKTNV-1">
          <mxGeometry x="281" y="320" width="258" height="60" as="geometry" />
        </mxCell>
        <mxCell id="wvXP1zJoyvh084g_56NX-5" style="edgeStyle=orthogonalEdgeStyle;rounded=0;orthogonalLoop=1;jettySize=auto;html=1;exitX=0.5;exitY=1;exitDx=0;exitDy=0;entryX=0.5;entryY=0;entryDx=0;entryDy=0;" edge="1" parent="WIyWlLk6GJQsqaUBKTNV-1" source="wvXP1zJoyvh084g_56NX-6" target="wvXP1zJoyvh084g_56NX-7">
          <mxGeometry relative="1" as="geometry" />
        </mxCell>
        <mxCell id="wvXP1zJoyvh084g_56NX-6" value="READ HAS DRIVERLICENSE" style="shape=parallelogram;html=1;strokeWidth=2;perimeter=parallelogramPerimeter;whiteSpace=wrap;rounded=1;arcSize=12;size=0.23;" vertex="1" parent="WIyWlLk6GJQsqaUBKTNV-1">
          <mxGeometry x="266" y="410" width="280" height="70" as="geometry" />
        </mxCell>
        <mxCell id="wvXP1zJoyvh084g_56NX-7" value="RESULT = (AGE &amp;gt;21 AND DRIVERLICENSE=TRUE )" style="rounded=1;whiteSpace=wrap;html=1;absoluteArcSize=1;arcSize=14;strokeWidth=2;" vertex="1" parent="WIyWlLk6GJQsqaUBKTNV-1">
          <mxGeometry x="234" y="520" width="346" height="70" as="geometry" />
        </mxCell>
        <mxCell id="wvXP1zJoyvh084g_56NX-8" style="edgeStyle=orthogonalEdgeStyle;rounded=0;orthogonalLoop=1;jettySize=auto;html=1;exitX=1;exitY=0.5;exitDx=0;exitDy=0;exitPerimeter=0;entryX=0.5;entryY=0;entryDx=0;entryDy=0;" edge="1" parent="WIyWlLk6GJQsqaUBKTNV-1" source="wvXP1zJoyvh084g_56NX-12" target="wvXP1zJoyvh084g_56NX-14">
          <mxGeometry relative="1" as="geometry" />
        </mxCell>
        <mxCell id="wvXP1zJoyvh084g_56NX-9" value="NO" style="edgeLabel;html=1;align=center;verticalAlign=middle;resizable=0;points=[];" vertex="1" connectable="0" parent="wvXP1zJoyvh084g_56NX-8">
          <mxGeometry x="-0.3611" y="4" relative="1" as="geometry">
            <mxPoint as="offset" />
          </mxGeometry>
        </mxCell>
        <mxCell id="wvXP1zJoyvh084g_56NX-10" style="edgeStyle=orthogonalEdgeStyle;rounded=0;orthogonalLoop=1;jettySize=auto;html=1;exitX=0;exitY=0.5;exitDx=0;exitDy=0;exitPerimeter=0;entryX=0.5;entryY=0;entryDx=0;entryDy=0;" edge="1" parent="WIyWlLk6GJQsqaUBKTNV-1" source="wvXP1zJoyvh084g_56NX-12" target="wvXP1zJoyvh084g_56NX-13">
          <mxGeometry relative="1" as="geometry" />
        </mxCell>
        <mxCell id="wvXP1zJoyvh084g_56NX-11" value="YES" style="edgeLabel;html=1;align=center;verticalAlign=middle;resizable=0;points=[];" vertex="1" connectable="0" parent="wvXP1zJoyvh084g_56NX-10">
          <mxGeometry x="-0.2252" relative="1" as="geometry">
            <mxPoint as="offset" />
          </mxGeometry>
        </mxCell>
        <mxCell id="wvXP1zJoyvh084g_56NX-12" value="RESULT = ?" style="strokeWidth=2;html=1;shape=mxgraph.flowchart.decision;whiteSpace=wrap;" vertex="1" parent="WIyWlLk6GJQsqaUBKTNV-1">
          <mxGeometry x="319" y="650" width="174" height="160" as="geometry" />
        </mxCell>
        <mxCell id="wvXP1zJoyvh084g_56NX-13" value="PRINT (HIRED)" style="shape=parallelogram;html=1;strokeWidth=2;perimeter=parallelogramPerimeter;whiteSpace=wrap;rounded=1;arcSize=12;size=0.23;" vertex="1" parent="WIyWlLk6GJQsqaUBKTNV-1">
          <mxGeometry x="-30" y="800" width="240" height="60" as="geometry" />
        </mxCell>
        <mxCell id="wvXP1zJoyvh084g_56NX-14" value="PRINT (REJECTED)" style="shape=parallelogram;html=1;strokeWidth=2;perimeter=parallelogramPerimeter;whiteSpace=wrap;rounded=1;arcSize=12;size=0.23;" vertex="1" parent="WIyWlLk6GJQsqaUBKTNV-1">
          <mxGeometry x="620" y="800" width="260" height="60" as="geometry" />
        </mxCell>
        <mxCell id="wvXP1zJoyvh084g_56NX-15" value="END" style="strokeWidth=2;html=1;shape=mxgraph.flowchart.terminator;whiteSpace=wrap;" vertex="1" parent="WIyWlLk6GJQsqaUBKTNV-1">
          <mxGeometry x="357" y="910" width="100" height="60" as="geometry" />
        </mxCell>
        <mxCell id="wvXP1zJoyvh084g_56NX-16" style="edgeStyle=orthogonalEdgeStyle;rounded=0;orthogonalLoop=1;jettySize=auto;html=1;exitX=0.5;exitY=1;exitDx=0;exitDy=0;entryX=0;entryY=0.5;entryDx=0;entryDy=0;entryPerimeter=0;" edge="1" parent="WIyWlLk6GJQsqaUBKTNV-1" source="wvXP1zJoyvh084g_56NX-13" target="wvXP1zJoyvh084g_56NX-15">
          <mxGeometry relative="1" as="geometry" />
        </mxCell>
        <mxCell id="wvXP1zJoyvh084g_56NX-17" style="edgeStyle=orthogonalEdgeStyle;rounded=0;orthogonalLoop=1;jettySize=auto;html=1;exitX=0.5;exitY=1;exitDx=0;exitDy=0;entryX=1;entryY=0.5;entryDx=0;entryDy=0;entryPerimeter=0;" edge="1" parent="WIyWlLk6GJQsqaUBKTNV-1" source="wvXP1zJoyvh084g_56NX-14" target="wvXP1zJoyvh084g_56NX-15">
          <mxGeometry relative="1" as="geometry" />
        </mxCell>
        <mxCell id="wvXP1zJoyvh084g_56NX-18" style="edgeStyle=orthogonalEdgeStyle;rounded=0;orthogonalLoop=1;jettySize=auto;html=1;exitX=0.5;exitY=1;exitDx=0;exitDy=0;entryX=0.5;entryY=0;entryDx=0;entryDy=0;entryPerimeter=0;" edge="1" parent="WIyWlLk6GJQsqaUBKTNV-1" source="wvXP1zJoyvh084g_56NX-7" target="wvXP1zJoyvh084g_56NX-12">
          <mxGeometry relative="1" as="geometry" />
        </mxCell>
      </root>
    </mxGraphModel>
  </diagram>
</mxfile>
